<svg xmlns="http://www.w3.org/2000/svg" viewBox="0 0 64 64" fill="none">
  <defs>
    <linearGradient id="fw1" x1="0" y1="0" x2="1" y2="0">
      <stop offset="0%" stop-color="#1B3A5C"/>
      <stop offset="100%" stop-color="#2B4C7E"/>
    </linearGradient>
    <linearGradient id="fw2" x1="0" y1="0" x2="1" y2="0">
      <stop offset="0%" stop-color="#4A7FAD"/>
      <stop offset="100%" stop-color="#5B8DB8"/>
    </linearGradient>
    <linearGradient id="fw3" x1="0" y1="0" x2="1" y2="0">
      <stop offset="0%" stop-color="#8BBDD9"/>
      <stop offset="100%" stop-color="#A8D0E6"/>
    </linearGradient>
  </defs>
  <!-- Waveform icon only (no text) for favicon -->
  <g transform="translate(5, 0)">
    <!-- Wave 1 (dark navy) -->
    <path d="M17 0C24 0 29 9 29 19C29 29 24 33 21 38C18 43 17 46 17 52C17 59 21 64 17 64C13 64 7 55 4 45C1 36 0 28 0 19C0 9 7 0 17 0Z" fill="url(#fw1)" opacity="0.95"/>
    <!-- Wave 2 (medium blue) -->
    <path d="M29 0C36 0 41 9 41 19C41 29 36 33 33 38C30 43 29 46 29 52C29 59 33 64 29 64C25 64 19 55 16 45C13 36 11 28 11 19C11 9 19 0 29 0Z" fill="url(#fw2)" opacity="0.85"/>
    <!-- Wave 3 (light blue) -->
    <path d="M41 0C48 0 53 9 53 19C53 29 48 33 45 38C42 43 41 46 41 52C41 59 45 64 41 64C37 64 31 55 28 45C25 36 23 28 23 19C23 9 31 0 41 0Z" fill="url(#fw3)" opacity="0.75"/>
  </g>
</svg>